<svg width="24" height="24" viewBox="0 0 24 24" fill="none" xmlns="http://www.w3.org/2000/svg">
<g id="Plane">
<path id="Vector" d="M17.4903 21C17.4043 21 17.3183 20.9899 17.2271 20.9747C16.8526 20.8937 16.5388 20.6558 16.3617 20.3167L12.8086 13.3828L12.0444 13.899L9.20501 15.8021L9.29611 18.7376C9.30623 18.9704 9.19995 19.1982 9.01774 19.35L8.41545 19.841C8.19275 20.0232 7.8992 20.094 7.61577 20.0333C7.33233 19.9726 7.09951 19.7853 6.96792 19.5272L5.56594 16.6524L2.95938 14.6481C2.74681 14.4861 2.62028 14.2381 2.62028 13.9699C2.61521 13.7016 2.73162 13.4536 2.93914 13.2815L3.58698 12.7552C3.78437 12.5932 4.05262 12.5325 4.29556 12.5932L7.12482 13.2664L10.2173 10.2195L4.06274 5.28977C3.77931 5.06707 3.61735 4.72796 3.61735 4.36861C3.61735 4.00926 3.77425 3.67015 4.05262 3.4424C4.58912 3.00713 5.323 2.88059 5.97085 3.11847C5.98603 3.12354 6.00121 3.1286 6.02146 3.13872L14.3068 7.0106L17.5865 4.12061C18.7455 3.17415 20.269 3.1539 21.0029 4.05481C21.7368 4.95572 21.4078 6.44374 20.269 7.37502L16.969 10.2802L18.9075 19.021C18.9126 19.0362 18.9126 19.0463 18.9176 19.0615C19.0087 19.6891 18.7658 20.3268 18.2748 20.7267C18.0572 20.9038 17.7788 21 17.4903 21ZM12.9605 12.0061C13.0263 12.0061 13.0971 12.0162 13.1629 12.0314C13.3856 12.0871 13.5678 12.2389 13.6741 12.4414L17.4245 19.765C17.4347 19.7853 17.4498 19.8005 17.4752 19.8055C17.4954 19.8106 17.5156 19.8055 17.5359 19.7904C17.6978 19.6588 17.7839 19.4512 17.7586 19.2437L15.8049 10.4422C15.7999 10.427 15.7999 10.4168 15.7948 10.4017C15.7391 10.0221 15.891 9.63235 16.1896 9.38941L19.5148 6.46398C20.1323 5.96292 20.4006 5.17842 20.0969 4.80388C19.7932 4.42935 18.9733 4.53563 18.371 5.02658L15.0559 7.94694C14.7319 8.21013 14.3118 8.28099 13.9424 8.14433C13.9272 8.13927 13.912 8.12915 13.8918 8.12409L5.55582 4.2269C5.30276 4.14592 5.02439 4.19653 4.81687 4.36355L11.27 9.52606C11.4573 9.6779 11.5737 9.9006 11.5889 10.1435C11.599 10.3865 11.5079 10.6193 11.3358 10.7914L7.83846 14.2381C7.62589 14.4456 7.32727 14.5317 7.03878 14.4608L4.20952 13.7877L4.01719 13.9446L6.41624 15.7869C6.4871 15.8425 6.54783 15.9134 6.58832 15.9994L7.91438 18.7174L8.10671 18.5605L8.01561 15.6603C8.00548 15.3567 8.15226 15.0783 8.40027 14.9113L12.5202 12.1478C12.6467 12.0567 12.8036 12.0061 12.9605 12.0061Z" fill="#1E2640" stroke="#1E2640" stroke-width="0.5"/>
</g>
</svg>
