<svg width="165" height="52" viewBox="0 0 165 52" fill="none" xmlns="http://www.w3.org/2000/svg">
<path d="M9.85527 26.165C9.85527 26.7255 9.69275 27.2684 9.37945 27.7333L9.2228 28.0145L8.84685 28.6844L7.67199 30.78L7.60933 30.8953H4.98547L5.17541 30.5593L6.13096 28.8641C5.96648 28.8114 5.80396 28.741 5.65123 28.659H5.64731L5.59444 28.6297C4.71526 28.1219 4.16895 27.1786 4.16895 26.1669C4.16895 25.831 4.22769 25.5029 4.34322 25.1884C4.43329 24.9443 4.55665 24.7119 4.7133 24.499C5.24786 23.7685 6.10747 23.333 7.01211 23.333C7.13155 23.333 7.25491 23.3428 7.38415 23.3604C8.79398 23.542 9.85723 24.749 9.85723 26.1689L9.85527 26.165Z" fill="#1E2640"/>
<path d="M52.1346 26.0184C52.1346 26.6922 52.1091 27.3543 52.0621 27.9871L52.0464 28.1941H26.366L26.3033 28.0711L25.4711 26.4383C25.428 26.3524 25.3477 26.3426 25.3164 26.3426C25.2851 26.3426 25.2048 26.3524 25.1637 26.4383L24.355 28.0691L24.2943 28.1941H13.4425L11.9896 30.7722L11.923 30.8874H8.78613L8.97607 30.5495L11.9915 25.2391L12.0581 25.1239H22.4967L24.0358 22.7431L27.1277 21.5342L28.1204 25.1239H52.1228L52.1267 25.3427C52.1346 25.5692 52.1365 25.7958 52.1365 26.0165L52.1346 26.0184Z" fill="#1E2640"/>
<path d="M51.7527 30.4365L51.7058 30.7041C50.758 35.8953 48.2654 40.6257 44.4941 44.3853C39.5714 49.2953 33.0255 52.0003 26.0605 52.0003C21.6098 52.0003 17.2275 50.8714 13.3896 48.7367C11.2866 47.5649 9.34813 46.1001 7.63283 44.3873C4.48029 41.2467 2.17952 37.3523 0.981166 33.122L0.898926 32.8349H4.06322L4.11608 32.9911C7.18443 42.5533 16.0037 48.9789 26.0605 48.9789C36.1173 48.9789 45.3791 42.1471 48.2027 32.3603C48.2575 32.1767 48.6217 30.6865 48.6355 30.6201L48.6727 30.4385H51.7547L51.7527 30.4365Z" fill="#1E2640"/>
<path d="M51.9504 22.9055L48.4512 20.5697L48.4277 20.4837C45.8783 10.2048 36.6791 3.02334 26.0584 3.02334C13.3562 3.02334 3.02331 13.3297 3.02331 26.0011C3.02331 27.5362 3.18191 29.087 3.49325 30.6162L3.54808 30.8877H0.452321L0.419033 30.7022C0.140983 29.1651 0 27.5851 0 26.0011C0 19.056 2.71001 12.527 7.63463 7.615C12.5573 2.70499 19.1032 0 26.0623 0C33.0214 0 39.5732 2.70304 44.4959 7.615C48.555 11.6637 51.1103 16.7788 51.8857 22.4075L51.9543 22.9055H51.9504Z" fill="#1E2640"/>
<path d="M33.3093 32.4013C33.3093 33.4872 32.4262 34.368 31.3375 34.368C30.2488 34.368 29.3677 33.4872 29.3677 32.4013C29.3677 31.3154 30.2508 30.4365 31.3375 30.4365C32.4243 30.4365 33.3093 31.3174 33.3093 32.4013Z" fill="#E5C100"/>
<path d="M37.6223 32.4013C37.6223 33.4872 36.7392 34.368 35.6505 34.368C34.5618 34.368 33.6807 33.4872 33.6807 32.4013C33.6807 31.3154 34.5638 30.4365 35.6505 30.4365C36.7373 30.4365 37.6223 31.3174 37.6223 32.4013Z" fill="#E5C100"/>
<path d="M76.262 36.5736C71.5097 36.5736 68.3356 34.0326 68.0869 30.0718H71.6859C71.9267 32.1635 73.6714 33.4037 76.4128 33.4037C79.1541 33.4037 80.7558 32.2319 80.7558 30.4155C80.7558 28.1285 77.9753 27.6637 75.7411 27.2887C72.4907 26.7321 68.4452 26.0387 68.4452 21.3963C68.4452 17.8261 71.5645 15.4258 76.2072 15.4258C80.8498 15.4258 83.7204 17.7948 83.9456 21.4861H80.4719C80.2643 19.5858 78.6548 18.4569 76.1093 18.4569C73.5637 18.4569 71.9972 19.5565 71.9972 21.2576C71.9972 23.3435 74.3607 23.7322 76.8612 24.1443L76.9395 24.1579C80.4347 24.7458 84.3959 25.4118 84.3959 30.2281C84.3959 34.0229 81.1259 36.5716 76.2581 36.5716L76.262 36.5736Z" fill="#1E2640"/>
<path d="M96.6338 36.5736C90.7164 36.5736 86.2539 32.0288 86.2539 26.0036C86.2539 19.9784 90.7164 15.4277 96.6338 15.4277C102.551 15.4277 106.931 19.8944 106.931 26.0465L106.928 26.3063C106.918 26.6207 106.896 26.9176 106.873 27.1578H89.9175L90.0507 27.8219C90.7105 31.1128 93.2345 33.1576 96.6338 33.1576C99.1088 33.1576 101.196 32.0542 102.389 30.1245H106.291C104.599 34.1713 101.02 36.5716 96.6338 36.5716V36.5736ZM96.6338 18.6952C95.0595 18.6952 93.6379 19.1425 92.5237 19.9881C91.4057 20.8397 90.597 22.0799 90.1897 23.5759L89.9998 24.2771H103.336L103.131 23.5681C102.248 20.5155 99.8196 18.6952 96.6338 18.6952Z" fill="#1E2640"/>
<path d="M119.113 36.5736C113.195 36.5736 108.733 32.0288 108.733 26.0036C108.733 19.9784 113.195 15.4277 119.113 15.4277C125.03 15.4277 129.34 19.8241 129.414 25.8825L129.41 26.0407C129.41 26.3805 129.391 26.7555 129.352 27.1578H112.395L112.528 27.8219C113.188 31.1128 115.712 33.1576 119.111 33.1576C121.586 33.1576 123.673 32.0542 124.866 30.1245H128.772C127.082 34.1693 123.499 36.5716 119.111 36.5716L119.113 36.5736ZM119.113 18.6952C117.544 18.6952 116.123 19.1425 115.003 19.9881C113.881 20.8455 113.074 22.0857 112.667 23.5759L112.477 24.2771H125.815L125.61 23.5681C124.727 20.5174 122.299 18.6952 119.113 18.6952Z" fill="#1E2640"/>
<path d="M154.944 36.5726C149.465 36.5726 145.784 32.9711 145.784 27.61V15.9307H149.475V27.0143C149.475 30.8169 151.519 33.0883 154.944 33.0883C158.369 33.0883 160.399 30.8189 160.399 27.0143V15.9307H164.087V27.61C164.087 33.0551 160.497 36.5726 154.944 36.5726Z" fill="#1E2640"/>
<path d="M131.853 36.0707V16.9345L134.241 15.999L135.019 19.0614L135.718 18.2529C137.128 16.6123 139.029 15.8154 141.529 15.8154H143.701L141.387 19.2606H141.122C137.468 19.2606 135.538 21.3524 135.538 25.3132V36.0707H131.851H131.853Z" fill="#1E2640"/>
<path d="M60.1298 45.28L59.4092 45.7605V6.72264L60.1298 6.24219V45.28Z" fill="#1E2640"/>
</svg>
